<?xml version="1.0" standalone="no"?>
<!DOCTYPE svg PUBLIC "-//W3C//DTD SVG 20010904//EN"
 "http://www.w3.org/TR/2001/REC-SVG-20010904/DTD/svg10.dtd">
<svg version="1.0" xmlns="http://www.w3.org/2000/svg"
 width="1076.000000pt" height="616.000000pt" viewBox="0 0 1076.000000 616.000000"
 preserveAspectRatio="xMidYMid meet">

<g transform="translate(0.000000,616.000000) scale(0.100000,-0.100000)"
fill="#000000" stroke="none">
<path d="M4920 5689 c-1225 -69 -2342 -489 -3003 -1129 -153 -148 -229 -236
-333 -391 -391 -578 -403 -1238 -32 -1833 288 -461 817 -869 1496 -1152 1116
-466 2565 -553 3807 -229 1214 316 2106 981 2369 1766 273 817 -126 1651
-1074 2245 -834 522 -2032 790 -3230 723z m730 -239 c744 -44 1393 -194 1980
-459 619 -280 1086 -695 1310 -1165 32 -66 70 -156 84 -200 96 -292 99 -634 6
-871 -113 -290 -227 -463 -449 -686 -151 -150 -249 -230 -436 -354 -306 -202
-604 -343 -1005 -475 -1130 -372 -2530 -372 -3660 0 -401 132 -699 273 -1005
475 -182 121 -284 203 -426 345 -200 199 -327 379 -419 594 -53 123 -77 205
-95 326 -63 407 84 861 401 1241 144 173 408 403 609 531 424 269 1030 494
1619 603 488 89 1014 123 1486 95z"/>
<path d="M6405 4441 c-6 -5 -28 -11 -50 -15 -85 -12 -115 -19 -121 -27 -3 -5
-16 -9 -29 -9 -13 0 -27 -4 -30 -10 -3 -5 -17 -10 -30 -10 -13 0 -27 -4 -30
-10 -3 -5 -15 -10 -26 -10 -10 0 -27 -4 -37 -9 -9 -5 -28 -13 -42 -19 -76 -31
-385 -180 -455 -220 -162 -92 -363 -220 -445 -282 -19 -15 -73 -55 -120 -90
-118 -88 -205 -155 -275 -213 -247 -202 -536 -436 -625 -506 -48 -38 -31 -12
38 61 68 71 163 182 192 224 8 12 34 48 57 81 44 64 128 220 157 293 37 92 49
156 49 260 1 101 0 108 -33 168 -38 72 -107 139 -176 171 -43 20 -57 22 -212
17 -175 -4 -248 -12 -258 -27 -3 -5 -15 -9 -28 -9 -12 0 -26 -4 -32 -8 -5 -5
-29 -15 -54 -22 -43 -14 -141 -61 -222 -108 -21 -12 -55 -32 -75 -43 -64 -36
-250 -171 -328 -237 -69 -60 -193 -182 -239 -235 -55 -66 -135 -187 -165 -252
-13 -27 -27 -58 -32 -67 -5 -10 -9 -26 -9 -36 0 -10 -5 -23 -11 -29 -7 -7 -12
-52 -13 -115 0 -91 2 -108 23 -143 59 -101 181 -165 314 -165 43 0 157 20 213
38 218 68 622 397 775 632 84 129 102 173 103 256 1 69 0 71 -42 122 -37 43
-50 52 -88 58 -65 9 -162 -3 -212 -28 -56 -28 -108 -86 -123 -139 l-13 -42 39
-34 c38 -32 43 -34 107 -31 63 3 70 6 108 43 42 41 54 90 26 101 -18 7 -27 29
-20 49 4 10 20 15 46 15 63 0 82 -39 57 -119 -52 -163 -192 -347 -404 -530
-164 -141 -230 -187 -355 -247 -30 -14 -63 -30 -72 -35 -10 -5 -26 -9 -36 -9
-10 0 -23 -5 -29 -11 -7 -7 -50 -12 -102 -12 -86 -1 -92 0 -128 29 -38 31 -38
32 -41 110 -4 95 20 179 79 280 22 36 39 69 40 73 0 3 16 26 35 51 18 25 45
62 59 82 45 67 308 324 405 395 234 172 369 241 656 333 45 15 157 12 196 -5
57 -23 71 -56 72 -160 1 -83 -9 -138 -36 -205 -6 -14 -14 -34 -18 -45 -14 -43
-115 -242 -142 -282 -15 -23 -28 -44 -28 -47 0 -2 -21 -36 -47 -74 -126 -182
-156 -226 -168 -241 -8 -9 -44 -54 -81 -101 -159 -200 -349 -405 -526 -568
-32 -29 -58 -55 -58 -58 0 -2 13 -4 29 -4 17 0 33 -4 36 -10 3 -5 1 -10 -5
-10 -6 0 -8 -4 -5 -10 15 -24 61 -6 220 88 66 39 294 194 365 248 25 18 59 44
76 56 62 45 232 178 400 315 399 322 669 539 690 553 11 8 73 54 136 102 207
157 523 335 803 453 87 37 221 81 310 104 22 5 59 14 81 20 52 14 194 14 194
1 0 -5 -15 -10 -34 -10 -19 0 -38 -4 -41 -10 -3 -5 -19 -10 -35 -10 -16 0 -32
-4 -35 -10 -3 -5 -13 -10 -21 -10 -22 0 -134 -51 -216 -98 -21 -12 -55 -32
-75 -43 -96 -54 -265 -184 -375 -289 -234 -221 -360 -453 -360 -666 -1 -115
19 -162 97 -231 86 -76 139 -97 284 -110 106 -9 315 32 411 82 16 8 37 15 47
15 40 0 -143 -133 -259 -188 -65 -31 -140 -43 -152 -23 -3 5 -20 11 -38 14
-18 3 -53 11 -78 17 -183 46 -235 52 -464 57 -146 3 -222 1 -229 -6 -6 -6 -20
-11 -32 -12 -47 -1 -125 -75 -125 -119 0 -21 82 -91 125 -105 17 -6 83 -17
147 -25 119 -13 228 -11 428 11 158 17 177 16 270 -20 76 -29 183 -65 265 -90
17 -5 59 -14 95 -19 229 -37 297 -40 450 -17 121 17 155 26 223 59 100 50 137
86 85 86 -15 0 -18 5 -13 20 6 18 2 20 -30 20 -20 0 -49 -8 -63 -18 -15 -10
-40 -24 -57 -31 -16 -7 -38 -17 -47 -22 -10 -5 -33 -9 -51 -9 -18 0 -37 -4
-42 -9 -11 -10 -129 5 -157 20 -10 5 -25 9 -35 9 -15 0 -61 13 -108 30 -11 4
-40 13 -65 20 -25 7 -70 21 -101 31 -30 11 -62 19 -70 19 -8 0 -25 9 -39 20
-22 17 -23 20 -6 20 69 1 346 133 460 220 124 94 298 267 426 423 41 51 86 89
180 152 182 122 191 129 354 259 215 173 323 274 394 367 47 62 51 83 22 99
-11 6 -20 17 -20 25 0 12 -16 15 -75 15 -81 0 -130 -17 -212 -72 -23 -15 -44
-28 -48 -28 -3 0 -23 -13 -43 -28 -20 -16 -82 -62 -136 -103 -164 -122 -282
-234 -666 -633 -84 -87 -166 -156 -185 -156 -4 0 -25 -13 -48 -28 -23 -16 -49
-32 -57 -35 -8 -4 -37 -20 -65 -36 -49 -30 -177 -94 -222 -112 -13 -5 -33 -13
-45 -18 -90 -36 -213 -64 -278 -63 -49 1 -130 15 -136 23 -3 5 -12 9 -21 9 -9
0 -31 16 -49 35 -33 33 -34 36 -34 117 0 91 12 133 68 248 103 210 294 426
542 611 204 152 345 224 538 275 69 18 180 18 224 -1 56 -23 73 -57 71 -145
-1 -67 -5 -84 -42 -155 -56 -111 -121 -192 -247 -315 -97 -94 -290 -250 -308
-250 -4 0 -26 -13 -49 -28 -46 -31 -82 -47 -176 -83 -45 -17 -145 -16 -167 1
-27 23 -36 60 -21 83 11 17 23 21 65 18 64 -3 115 20 148 68 31 45 30 64 -2
107 -26 33 -28 34 -99 34 -83 0 -117 -14 -166 -67 -36 -40 -50 -65 -70 -125
-24 -69 30 -162 119 -204 182 -86 509 65 833 386 152 149 229 256 276 380 47
127 47 189 -3 262 -32 46 -99 108 -117 108 -7 0 -17 4 -23 10 -5 5 -54 11
-109 12 -75 2 -99 6 -97 16 1 7 -10 28 -24 47 l-26 35 -152 0 c-84 0 -156 -4
-161 -9z m-2170 -181 c4 -6 -20 -10 -64 -10 -41 0 -71 4 -71 10 0 6 28 10 64
10 36 0 68 -4 71 -10z m-182 -27 c-7 -2 -19 -2 -25 0 -7 3 -2 5 12 5 14 0 19
-2 13 -5z m3682 -154 c-50 -51 -235 -209 -322 -276 -26 -20 -56 -44 -67 -54
-33 -32 -30 -13 6 27 117 131 380 354 418 354 8 0 -7 -22 -35 -51z m-49 -134
c-9 -9 -16 -13 -16 -8 0 12 22 34 28 28 2 -2 -3 -11 -12 -20z m-3731 -85 c4
-6 -10 -10 -35 -10 -25 0 -39 4 -35 10 3 6 19 10 35 10 16 0 32 -4 35 -10z
m-730 -1000 c3 -5 -1 -10 -9 -10 -9 0 -16 5 -16 10 0 6 4 10 9 10 6 0 13 -4
16 -10z m-60 -20 c4 -6 -5 -10 -19 -10 -14 0 -26 5 -26 10 0 6 9 10 19 10 11
0 23 -4 26 -10z m-80 -20 c4 -6 -13 -10 -45 -10 -32 0 -49 4 -45 10 3 6 24 10
45 10 21 0 42 -4 45 -10z m1998 -47 c-7 -2 -19 -2 -25 0 -7 3 -2 5 12 5 14 0
19 -2 13 -5z m212 -39 c33 -8 76 -20 95 -25 19 -6 47 -13 63 -16 15 -3 30 -9
33 -14 3 -5 16 -9 30 -9 42 0 26 -18 -23 -26 -109 -17 -436 -4 -449 18 -3 4
-14 8 -25 8 -34 0 -14 36 36 63 39 21 160 22 240 1z m312 -140 c-3 -3 -12 -4
-19 -1 -8 3 -5 6 6 6 11 1 17 -2 13 -5z"/>
</g>
</svg>
