<?xml version="1.0" encoding="iso-8859-1"?>
<!-- Generator: Adobe Illustrator 17.1.0, SVG Export Plug-In . SVG Version: 6.00 Build 0)  -->
<!DOCTYPE svg PUBLIC "-//W3C//DTD SVG 1.1//EN" "http://www.w3.org/Graphics/SVG/1.1/DTD/svg11.dtd">
<svg version="1.1" id="Capa_1" xmlns="http://www.w3.org/2000/svg" xmlns:xlink="http://www.w3.org/1999/xlink" x="0px" y="0px"
	 viewBox="0 0 463.311 463.311" style="enable-background:new 0 0 463.311 463.311;" xml:space="preserve">
<g>
	<path d="M442.404,448.311h-50.975v-15.368c0-35.193-9.385-62.355-27.894-80.732c-23.199-23.033-52.226-23.474-54.323-23.474
		c-0.036,0-0.065,0-0.084,0h-37.571v-22.734c0-0.396-0.04-0.783-0.1-1.163c24.057-9.941,39.262-26.522,48.52-40.897
		c14.433-22.41,17.689-43.977,17.819-44.884c0.052-0.356,0.078-0.716,0.078-1.076v-1.606c5.268-1.299,9.851-4.017,13.49-8.046
		c10.618-11.757,10.002-30.306,9.243-37.734c-0.576-5.655-3.134-10.4-7.397-13.722c-0.837-0.653-1.714-1.229-2.617-1.738v-31.589
		c0-39.34-17.907-66.407-32.931-82.186c-16.209-17.025-32.409-24.784-33.091-25.106c-2.382-1.125-5.176-0.918-7.363,0.541
		l-8.277,5.519c-30.853-26.129-61.543-22.189-62.896-22c-3.703,0.52-6.457,3.688-6.457,7.427v7.654
		c-27.813-3.079-46.348,5.969-47.2,6.395c-1.811,0.905-3.178,2.503-3.792,4.431c-0.615,1.928-0.424,4.022,0.528,5.808l3.985,7.473
		c1.056,4.363-1.617,7.324-11.464,16.029c-4.518,3.995-9.639,8.522-14.941,14.355c-16.232,17.856-13.757,69.112-12.609,84.46
		c-1.448,0.679-2.854,1.508-4.16,2.526c-4.264,3.323-6.822,8.067-7.399,13.723c-0.758,7.429-1.374,25.978,9.244,37.734
		c3.68,4.074,8.326,6.804,13.668,8.085v1.567c0,0.36,0.026,0.72,0.078,1.076c0.131,0.907,3.387,22.474,17.819,44.884
		c9.258,14.375,24.463,30.956,48.52,40.897c-0.06,0.38-0.1,0.767-0.1,1.163v22.734h-37.518c-1.282,0.012-30.869,0.051-54.461,23.474
		c-18.509,18.377-27.894,45.54-27.894,80.732v15.368H20.908c-4.143,0-7.5,3.358-7.5,7.5c0,4.142,3.357,7.5,7.5,7.5h421.496
		c4.143,0,7.5-3.358,7.5-7.5C449.904,451.669,446.546,448.311,442.404,448.311z M309.181,343.738
		c0.191-0.01,24.56,0.031,43.784,19.118c15.569,15.457,23.463,39.039,23.463,70.088v15.368h-46.687v-9.647h3.876
		c4.143,0,7.5-3.358,7.5-7.5c0-4.142-3.357-7.5-7.5-7.5h-8.501v-27.038c2.726-1.124,4.645-3.804,4.645-6.934
		c0-0.71-0.098-1.397-0.282-2.047l-3.892-19.133c-0.711-3.495-3.783-6.005-7.35-6.005h-1.242c-3.566,0-6.639,2.511-7.35,6.005
		l-4.004,19.686c-0.448,2.206,0.117,4.497,1.542,6.24c0.791,0.968,1.806,1.701,2.933,2.169v27.057h-8.751
		c-4.143,0-7.5,3.358-7.5,7.5c0,4.142,3.357,7.5,7.5,7.5h4.126v9.647h-138.67V343.738h8.046c2.93,28.747,27.28,51.253,56.788,51.253
		s53.858-22.505,56.788-51.253H309.181z M151.822,448.311h-11.918V345.925c5.164-1.395,9.412-1.901,11.918-2.084V448.311z
		 M231.775,89.575c45.597,0,66.092,7.415,73.022,10.765v16.377c0,2.068,0.853,4.045,2.36,5.462l4.251,4H152.142l4.251-4
		c1.507-1.417,2.36-3.394,2.36-5.462v-16.377C165.683,96.989,186.178,89.575,231.775,89.575z M322.874,141.179v4.345
		c-0.707,9.247-3.24,22.275-11.39,31.209c-6.373,6.986-15.131,10.383-26.772,10.383c-24.096,0-26.385-7.236-29.282-16.398
		c-2.401-7.593-6.03-19.069-23.635-19.069s-21.234,11.475-23.636,19.069c-2.897,9.162-5.187,16.398-29.282,16.398
		c-11.642,0-20.399-3.396-26.773-10.383c-9.53-10.448-11.388-26.514-11.615-35.554H322.874z M340.232,198.277
		c-0.721,0.798-1.509,1.456-2.358,2.009v-33.601c0.822,0.096,1.646,0.231,2.433,0.421c0.435,0.174,0.889,0.311,1.359,0.401
		c0.883,0.31,1.684,0.7,2.323,1.198c0.724,0.564,1.492,1.412,1.696,3.414C346.577,180.858,345.613,192.319,340.232,198.277z
		 M137.793,79.978c4.752-5.227,9.547-9.467,13.777-13.207c10.363-9.162,20.151-17.816,15.698-32.282
		c-0.141-0.458-0.325-0.9-0.551-1.323l-0.302-0.566c7.908-2.217,21.751-4.537,39.216-1.108c2.2,0.431,4.479-0.143,6.21-1.567
		c1.732-1.425,2.735-3.55,2.735-5.792v-9.053c2.899,0.147,6.635,0.553,10.93,1.512c13.698,3.057,26.348,10,37.599,20.638
		c2.539,2.402,6.403,2.729,9.313,0.791l9.352-6.235c12.594,7.348,53.821,35.695,53.821,91.765v4.692
		c-0.259-0.245-0.534-0.47-0.825-0.676l-14.971-14.089V96.035c0-2.25-1.01-4.38-2.751-5.805
		c-1.959-1.602-20.992-15.655-85.271-15.655c-64.278,0-83.311,14.053-85.27,15.655c-1.741,1.425-2.751,3.556-2.751,5.805v17.441
		l-15.077,14.188c-0.14,0.104-0.273,0.217-0.405,0.33C128.546,108.032,131.019,87.429,137.793,79.978z M122.902,198.278
		c-5.381-5.958-6.345-17.419-5.454-26.159c0.204-1.993,0.964-2.837,1.681-3.4c1.518-1.193,3.926-1.794,6.31-2.051v33.729
		C124.519,199.825,123.672,199.131,122.902,198.278z M156.246,256.284c-11.735-18.011-15.267-35.842-15.808-38.914v-31.204
		c0.178,0.203,0.345,0.412,0.526,0.612c9.249,10.177,22.005,15.338,37.912,15.338c32.375,0,39.283-13.276,43.584-26.875
		c2.249-7.112,2.718-8.592,9.334-8.592c6.616,0,7.084,1.48,9.333,8.592c4.301,13.599,11.208,26.875,43.584,26.875
		c15.908,0,28.663-5.161,37.913-15.338c0.086-0.095,0.164-0.194,0.249-0.29v30.892c-0.529,3.061-3.936,20.472-15.509,38.442
		c-16.804,26.092-42.038,40.434-75.012,42.63h-1.395C198.192,296.269,173.054,282.082,156.246,256.284z M199.255,343.738
		c4.143,0,7.5-3.358,7.5-7.5v-26.469c7.174,1.836,14.973,3.118,23.472,3.668c0.162,0.01,0.323,0.016,0.485,0.016h1.887
		c0.162,0,0.323-0.005,0.485-0.016c8.499-0.551,16.298-1.832,23.472-3.668v26.469c0,4.142,3.357,7.5,7.5,7.5h9.27
		c-2.85,20.454-20.445,36.253-41.671,36.253s-38.821-15.799-41.671-36.253H199.255z M86.883,432.944
		c0-48.922,19.861-71.011,38.021-80.988v96.356H86.883V432.944z"/>
	<circle cx="178.419" cy="160.637" r="8.951"/>
	<circle cx="284.892" cy="160.637" r="8.951"/>
	<path d="M229.721,224.374h3.869c9.925,0,18-8.075,18-18c0-4.142-3.357-7.5-7.5-7.5c-4.143,0-7.5,3.358-7.5,7.5c0,1.654-1.346,3-3,3
		h-3.869c-1.654,0-3-1.346-3-3c0-4.142-3.357-7.5-7.5-7.5c-4.143,0-7.5,3.358-7.5,7.5
		C211.721,216.299,219.796,224.374,229.721,224.374z"/>
	<path d="M278.15,248.375c2.601-3.225,2.095-7.946-1.13-10.546c-3.225-2.601-7.947-2.095-10.546,1.129
		c-0.08,0.1-9.089,9.939-32.971,9.939c-24.809,0-36.903-10.295-37.494-10.812c-3.062-2.75-7.774-2.52-10.552,0.528
		c-2.791,3.061-2.572,7.805,0.489,10.595c0.657,0.6,16.467,14.689,47.557,14.689C264.729,263.897,276.869,249.964,278.15,248.375z"
		/>
</g>
<g>
</g>
<g>
</g>
<g>
</g>
<g>
</g>
<g>
</g>
<g>
</g>
<g>
</g>
<g>
</g>
<g>
</g>
<g>
</g>
<g>
</g>
<g>
</g>
<g>
</g>
<g>
</g>
<g>
</g>
</svg>
